<svg width="140" height="141" viewBox="0 0 140 141" fill="none" xmlns="http://www.w3.org/2000/svg">
<path d="M23.3334 64.666H116.667C119.761 64.666 122.728 65.8953 124.916 68.0833C127.104 70.2712 128.333 73.2385 128.333 76.3327V105.499C128.333 107.046 127.719 108.53 126.625 109.624C125.531 110.718 124.047 111.333 122.5 111.333H17.5C15.9529 111.333 14.4692 110.718 13.3752 109.624C12.2813 108.53 11.6667 107.046 11.6667 105.499V76.3327C11.6667 73.2385 12.8958 70.2712 15.0838 68.0833C17.2717 65.8953 20.2392 64.666 23.3334 64.666V64.666Z" fill="#5096FF"/>
<path d="M46.6666 23.834H93.3333C99.5217 23.834 105.457 26.2923 109.832 30.6681C114.208 35.044 116.667 40.9789 116.667 47.1673V64.6673H23.3333V47.1673C23.3333 40.9789 25.7916 35.044 30.1675 30.6681C34.5433 26.2923 40.4783 23.834 46.6666 23.834V23.834Z" fill="#5096FF"/>
<path d="M46.6667 35.5H93.3333C96.4275 35.5 99.395 36.7293 101.583 38.9173C103.771 41.1052 105 44.0725 105 47.1667V64.6667H35V47.1667C35 44.0725 36.2292 41.1052 38.4171 38.9173C40.605 36.7293 43.5725 35.5 46.6667 35.5V35.5Z" fill="#F0FDFF"/>
<path d="M17.5 111.334H40.8333V117.167C40.8333 118.714 40.2187 120.198 39.1248 121.292C38.0308 122.386 36.5471 123.001 35 123.001H23.3333C21.7862 123.001 20.3025 122.386 19.2085 121.292C18.1146 120.198 17.5 118.714 17.5 117.167V111.334Z" fill="#737A83"/>
<path d="M99.1667 111.334H122.5V117.167C122.5 118.714 121.885 120.198 120.791 121.292C119.698 122.386 118.214 123.001 116.667 123.001H105C103.453 123.001 101.969 122.386 100.875 121.292C99.7813 120.198 99.1667 118.714 99.1667 117.167V111.334Z" fill="#737A83"/>
<path d="M40.8333 82.166H29.1666C25.945 82.166 23.3333 84.7777 23.3333 87.9994C23.3333 91.221 25.945 93.8327 29.1666 93.8327H40.8333C44.055 93.8327 46.6666 91.221 46.6666 87.9994C46.6666 84.7777 44.055 82.166 40.8333 82.166Z" fill="white"/>
<path d="M110.833 82.166H99.1666C95.945 82.166 93.3333 84.7777 93.3333 87.9994C93.3333 91.221 95.945 93.8327 99.1666 93.8327H110.833C114.055 93.8327 116.667 91.221 116.667 87.9994C116.667 84.7777 114.055 82.166 110.833 82.166Z" fill="white"/>
</svg>
