<svg width="40" height="40" viewBox="0 0 40 40" fill="none" xmlns="http://www.w3.org/2000/svg">
<path d="M5.99675 19.6103C8.16298 13.986 13.618 9.99984 19.9999 9.99984V6.6665C12.1939 6.6665 5.5314 11.5443 2.88616 18.4122L5.99675 19.6103ZM19.9999 9.99984C26.3817 9.99984 31.8367 13.986 34.0029 19.6103L37.1136 18.4122C34.4682 11.5443 27.8057 6.6665 19.9999 6.6665V9.99984ZM34.0029 20.3893C31.8367 26.0137 26.3817 29.9998 19.9999 29.9998V33.3332C27.8057 33.3332 34.4682 28.4553 37.1136 21.5875L34.0029 20.3893ZM19.9999 29.9998C13.618 29.9998 8.16298 26.0137 5.99675 20.3893L2.88616 21.5875C5.5314 28.4553 12.1939 33.3332 19.9999 33.3332V29.9998ZM34.0029 19.6103C34.0994 19.8607 34.0994 20.139 34.0029 20.3893L37.1136 21.5875C37.5071 20.5658 37.5071 19.4338 37.1136 18.4122L34.0029 19.6103ZM2.88616 18.4122C2.4927 19.4338 2.4927 20.5658 2.88616 21.5875L5.99675 20.3893C5.90028 20.139 5.90028 19.8607 5.99675 19.6103L2.88616 18.4122Z" fill="#C7C7C7"/>
<path d="M20 25C22.7614 25 25 22.7614 25 20C25 17.2386 22.7614 15 20 15C17.2386 15 15 17.2386 15 20C15 22.7614 17.2386 25 20 25Z" stroke="#C7C7C7" stroke-width="3" stroke-linecap="round" stroke-linejoin="round"/>
</svg>
