<svg width="140" height="141" viewBox="0 0 140 141" fill="none" xmlns="http://www.w3.org/2000/svg">
<path d="M23.3333 23.834H116.667C119.761 23.834 122.728 25.0631 124.916 27.2511C127.104 29.439 128.333 32.4065 128.333 35.5007V93.834C128.333 95.3811 127.719 96.8647 126.625 97.9587C125.531 99.0527 124.047 99.6673 122.5 99.6673H17.5C15.9529 99.6673 14.4693 99.0527 13.3753 97.9587C12.2813 96.8647 11.6667 95.3811 11.6667 93.834V35.5007C11.6667 32.4065 12.8956 29.439 15.0836 27.2511C17.2715 25.0631 20.2391 23.834 23.3333 23.834Z" fill="#737A83"/>
<path d="M5.83333 99.666H134.167V105.499C134.167 107.046 133.552 108.53 132.458 109.624C131.364 110.718 129.88 111.333 128.333 111.333H11.6667C10.1196 111.333 8.63592 110.718 7.54196 109.624C6.44799 108.53 5.83333 107.046 5.83333 105.499V99.666Z" fill="#737A83"/>
<path d="M116.667 35.5H23.3333V88H116.667V35.5Z" fill="url(#paint0_linear_1023_996)"/>
<defs>
<linearGradient id="paint0_linear_1023_996" x1="23.3333" y1="35.5" x2="116.667" y2="88" gradientUnits="userSpaceOnUse">
<stop offset="0.255208" stop-color="#F0FCFF"/>
<stop offset="1" stop-color="#ECEEFF"/>
</linearGradient>
</defs>
</svg>
