<svg width="110" height="110" viewBox="0 0 110 110" fill="none" xmlns="http://www.w3.org/2000/svg">
<path d="M45.8333 45.834H64.1666C70.2445 45.834 76.0734 48.2483 80.3711 52.546C84.6688 56.8437 87.0833 62.6728 87.0833 68.7506V96.2506C87.0833 98.6818 86.1175 101.013 84.3984 102.732C82.6794 104.452 80.3478 105.417 77.9166 105.417H32.0833C29.6521 105.417 27.3206 104.452 25.6015 102.732C23.8824 101.013 22.9166 98.6818 22.9166 96.2506V68.7506C22.9166 62.6728 25.331 56.8437 29.6287 52.546C33.9264 48.2483 39.7554 45.834 45.8333 45.834Z" fill="#6B758F"/>
<path d="M55 41.2507C65.1252 41.2507 73.3333 33.0425 73.3333 22.9173C73.3333 12.7921 65.1252 4.58398 55 4.58398C44.8747 4.58398 36.6666 12.7921 36.6666 22.9173C36.6666 33.0425 44.8747 41.2507 55 41.2507Z" fill="#6B758F"/>
<path d="M51.5625 55L46.9792 77.9167L55 87.0833L63.0209 77.9167L58.4375 55H51.5625Z" fill="white"/>
</svg>
