<svg width="622" height="530" viewBox="0 0 622 530" fill="none" xmlns="http://www.w3.org/2000/svg">
<rect width="622" height="530" rx="20" fill="url(#paint0_linear_203_4403)"/>
<path d="M57.9238 58.4775H60.042C60.7803 58.4775 61.4629 58.6035 62.0898 58.8555C62.7227 59.1016 63.2734 59.4531 63.7422 59.9102C64.2168 60.3672 64.5859 60.9121 64.8496 61.5449C65.1133 62.1719 65.2451 62.8662 65.2451 63.6279C65.2451 64.3896 65.1133 65.0869 64.8496 65.7197C64.5859 66.3525 64.2168 66.9004 63.7422 67.3633C63.2734 67.8203 62.7227 68.1748 62.0898 68.4268C61.4629 68.6729 60.7803 68.7959 60.042 68.7959H57.9238C57.1855 68.7959 56.5029 68.6729 55.876 68.4268C55.249 68.1748 54.6982 67.8203 54.2236 67.3633C53.7549 66.9062 53.3887 66.3643 53.125 65.7373C52.8672 65.1045 52.7383 64.4072 52.7383 63.6455C52.7383 62.8838 52.8672 62.1895 53.125 61.5625C53.3887 60.9297 53.7549 60.3848 54.2236 59.9277C54.6982 59.4648 55.249 59.1074 55.876 58.8555C56.5029 58.6035 57.1855 58.4775 57.9238 58.4775ZM57.9238 59.8135C57.1562 59.8135 56.5059 59.9746 55.9727 60.2969C55.4395 60.6133 55.0352 61.0586 54.7598 61.6328C54.4844 62.207 54.3467 62.8779 54.3467 63.6455C54.3467 64.2256 54.4229 64.75 54.5752 65.2188C54.7334 65.6875 54.9648 66.0889 55.2695 66.4229C55.5742 66.7568 55.9492 67.0146 56.3945 67.1963C56.8398 67.3779 57.3496 67.4688 57.9238 67.4688H60.0596C60.8213 67.4688 61.4658 67.3105 61.9932 66.9941C62.5264 66.6719 62.9307 66.2236 63.2061 65.6494C63.4873 65.0693 63.6279 64.3955 63.6279 63.6279C63.6279 63.0537 63.5488 62.5322 63.3906 62.0635C63.2324 61.5947 63.001 61.1934 62.6963 60.8594C62.3975 60.5254 62.0254 60.2676 61.5801 60.0859C61.1406 59.9043 60.6338 59.8135 60.0596 59.8135H57.9238ZM59.8047 56.6758V70.5273H58.1787V56.6758H59.8047ZM72.751 68.374V63.4785C72.751 63.1035 72.6748 62.7783 72.5225 62.5029C72.376 62.2217 72.1533 62.0049 71.8545 61.8525C71.5557 61.7002 71.1865 61.624 70.7471 61.624C70.3369 61.624 69.9766 61.6943 69.666 61.835C69.3613 61.9756 69.1211 62.1602 68.9453 62.3887C68.7754 62.6172 68.6904 62.8633 68.6904 63.127H67.0645C67.0645 62.7871 67.1523 62.4502 67.3281 62.1162C67.5039 61.7822 67.7559 61.4805 68.084 61.2109C68.418 60.9355 68.8164 60.7188 69.2793 60.5605C69.748 60.3965 70.2695 60.3145 70.8438 60.3145C71.5352 60.3145 72.1445 60.4316 72.6719 60.666C73.2051 60.9004 73.6211 61.2549 73.9199 61.7295C74.2246 62.1982 74.377 62.7871 74.377 63.4961V67.9258C74.377 68.2422 74.4033 68.5791 74.4561 68.9365C74.5146 69.2939 74.5996 69.6016 74.7109 69.8594V70H73.0146C72.9326 69.8125 72.8682 69.5635 72.8213 69.2529C72.7744 68.9365 72.751 68.6436 72.751 68.374ZM73.0322 64.2344L73.0498 65.377H71.4062C70.9434 65.377 70.5303 65.415 70.167 65.4912C69.8037 65.5615 69.499 65.6699 69.2529 65.8164C69.0068 65.9629 68.8193 66.1475 68.6904 66.3701C68.5615 66.5869 68.4971 66.8418 68.4971 67.1348C68.4971 67.4336 68.5645 67.7061 68.6992 67.9521C68.834 68.1982 69.0361 68.3945 69.3057 68.541C69.5811 68.6816 69.918 68.752 70.3164 68.752C70.8145 68.752 71.2539 68.6465 71.6348 68.4355C72.0156 68.2246 72.3174 67.9668 72.54 67.6621C72.7686 67.3574 72.8916 67.0615 72.9092 66.7744L73.6035 67.5566C73.5625 67.8027 73.4512 68.0752 73.2695 68.374C73.0879 68.6729 72.8447 68.96 72.54 69.2354C72.2412 69.5049 71.8838 69.7305 71.4678 69.9121C71.0576 70.0879 70.5947 70.1758 70.0791 70.1758C69.4346 70.1758 68.8691 70.0498 68.3828 69.7979C67.9023 69.5459 67.5273 69.209 67.2578 68.7871C66.9941 68.3594 66.8623 67.8818 66.8623 67.3545C66.8623 66.8447 66.9619 66.3965 67.1611 66.0098C67.3604 65.6172 67.6475 65.292 68.0225 65.0342C68.3975 64.7705 68.8486 64.5713 69.376 64.4365C69.9033 64.3018 70.4922 64.2344 71.1426 64.2344H73.0322ZM82.4014 67.8379L85.6357 60.4902H87.2002L82.9639 70H81.8389L77.6201 60.4902H79.1846L82.4014 67.8379ZM78.71 60.4902V70H77.084V60.4902H78.71ZM86.04 70V60.4902H87.6748V70H86.04ZM92.0518 67.4248L96.4375 60.4902H98.0723V70H96.4375V63.0654L92.0518 70H90.4346V60.4902H92.0518V67.4248ZM107.037 60.4902V61.835H102.44V60.4902H107.037ZM108.47 60.4902V70H106.844V60.4902H108.47ZM102.045 60.4902H103.68L103.434 65.0781C103.393 65.7871 103.325 66.4141 103.231 66.959C103.144 67.498 103.021 67.9609 102.862 68.3477C102.71 68.7344 102.517 69.0508 102.282 69.2969C102.054 69.5371 101.778 69.7158 101.456 69.833C101.134 69.9443 100.762 70 100.34 70H99.8301V68.5674L100.182 68.541C100.434 68.5234 100.647 68.4648 100.823 68.3652C101.005 68.2656 101.157 68.1191 101.28 67.9258C101.403 67.7266 101.503 67.4717 101.579 67.1611C101.661 66.8506 101.723 66.4814 101.764 66.0537C101.811 65.626 101.846 65.1279 101.869 64.5596L102.045 60.4902ZM112.847 67.4248L117.232 60.4902H118.867V70H117.232V63.0654L112.847 70H111.229V60.4902H112.847V67.4248ZM123.402 65.4648H125.16L122.409 70H120.651L123.402 65.4648ZM124.765 60.4902H128.737V70H127.111V61.8086H124.765C124.302 61.8086 123.924 61.8877 123.631 62.0459C123.338 62.1982 123.124 62.3975 122.989 62.6436C122.854 62.8896 122.787 63.1445 122.787 63.4082C122.787 63.666 122.849 63.915 122.972 64.1553C123.095 64.3896 123.288 64.583 123.552 64.7354C123.815 64.8877 124.155 64.9639 124.571 64.9639H127.551V66.2998H124.571C124.026 66.2998 123.543 66.2266 123.121 66.0801C122.699 65.9336 122.342 65.7314 122.049 65.4736C121.756 65.21 121.533 64.9023 121.381 64.5508C121.229 64.1934 121.152 63.8066 121.152 63.3906C121.152 62.9746 121.231 62.5908 121.39 62.2393C121.554 61.8877 121.788 61.5801 122.093 61.3164C122.403 61.0527 122.781 60.8506 123.227 60.71C123.678 60.5635 124.19 60.4902 124.765 60.4902Z" fill="black"/>
<rect x="52" y="80" width="95" height="25" rx="12" fill="white"/>
<path d="M155.502 67.0645L161.804 57.2031H163.5V70H161.804V60.1299L155.502 70H153.814V57.2031H155.502V67.0645ZM171.806 67.8379L175.04 60.4902H176.604L172.368 70H171.243L167.024 60.4902H168.589L171.806 67.8379ZM168.114 60.4902V70H166.488V60.4902H168.114ZM175.444 70V60.4902H177.079V70H175.444ZM181.623 65.4648H183.381L180.63 70H178.872L181.623 65.4648ZM182.985 60.4902H186.958V70H185.332V61.8086H182.985C182.522 61.8086 182.145 61.8877 181.852 62.0459C181.559 62.1982 181.345 62.3975 181.21 62.6436C181.075 62.8896 181.008 63.1445 181.008 63.4082C181.008 63.666 181.069 63.915 181.192 64.1553C181.315 64.3896 181.509 64.583 181.772 64.7354C182.036 64.8877 182.376 64.9639 182.792 64.9639H185.771V66.2998H182.792C182.247 66.2998 181.764 66.2266 181.342 66.0801C180.92 65.9336 180.562 65.7314 180.27 65.4736C179.977 65.21 179.754 64.9023 179.602 64.5508C179.449 64.1934 179.373 63.8066 179.373 63.3906C179.373 62.9746 179.452 62.5908 179.61 62.2393C179.774 61.8877 180.009 61.5801 180.313 61.3164C180.624 61.0527 181.002 60.8506 181.447 60.71C181.898 60.5635 182.411 60.4902 182.985 60.4902Z" fill="black"/>
<rect x="152.25" y="81" width="95" height="25" rx="12" fill="white"/>
<path d="M263.838 63.1973V64.0059C263.838 64.9668 263.718 65.8281 263.478 66.5898C263.237 67.3516 262.892 67.999 262.44 68.5322C261.989 69.0654 261.447 69.4727 260.814 69.7539C260.188 70.0352 259.484 70.1758 258.705 70.1758C257.949 70.1758 257.255 70.0352 256.622 69.7539C255.995 69.4727 255.45 69.0654 254.987 68.5322C254.53 67.999 254.176 67.3516 253.924 66.5898C253.672 65.8281 253.546 64.9668 253.546 64.0059V63.1973C253.546 62.2363 253.669 61.3779 253.915 60.6221C254.167 59.8604 254.521 59.2129 254.979 58.6797C255.436 58.1406 255.978 57.7305 256.604 57.4492C257.237 57.168 257.932 57.0273 258.688 57.0273C259.467 57.0273 260.17 57.168 260.797 57.4492C261.43 57.7305 261.972 58.1406 262.423 58.6797C262.88 59.2129 263.229 59.8604 263.469 60.6221C263.715 61.3779 263.838 62.2363 263.838 63.1973ZM262.159 64.0059V63.1797C262.159 62.418 262.08 61.7441 261.922 61.1582C261.77 60.5723 261.544 60.0801 261.245 59.6816C260.946 59.2832 260.58 58.9814 260.146 58.7764C259.719 58.5713 259.232 58.4688 258.688 58.4688C258.16 58.4688 257.683 58.5713 257.255 58.7764C256.833 58.9814 256.47 59.2832 256.165 59.6816C255.866 60.0801 255.635 60.5723 255.471 61.1582C255.307 61.7441 255.225 62.418 255.225 63.1797V64.0059C255.225 64.7734 255.307 65.4531 255.471 66.0449C255.635 66.6309 255.869 67.126 256.174 67.5303C256.484 67.9287 256.851 68.2305 257.272 68.4355C257.7 68.6406 258.178 68.7432 258.705 68.7432C259.256 68.7432 259.745 68.6406 260.173 68.4355C260.601 68.2305 260.961 67.9287 261.254 67.5303C261.553 67.126 261.778 66.6309 261.931 66.0449C262.083 65.4531 262.159 64.7734 262.159 64.0059ZM270.008 60.4902V70H268.373V60.4902H270.008ZM273.198 60.4902V61.8086H265.244V60.4902H273.198ZM281.97 60.4902V70H280.344V60.4902H281.97ZM281.416 64.8584V66.1943C281.088 66.3174 280.754 66.4287 280.414 66.5283C280.08 66.6221 279.726 66.6982 279.351 66.7568C278.981 66.8096 278.58 66.8359 278.146 66.8359C277.396 66.8359 276.746 66.707 276.195 66.4492C275.645 66.1855 275.22 65.79 274.921 65.2627C274.622 64.7295 274.473 64.0586 274.473 63.25V60.4727H276.099V63.25C276.099 63.7773 276.178 64.2051 276.336 64.5332C276.494 64.8613 276.726 65.1045 277.03 65.2627C277.335 65.415 277.707 65.4912 278.146 65.4912C278.568 65.4912 278.964 65.4648 279.333 65.4121C279.708 65.3535 280.065 65.2773 280.405 65.1836C280.751 65.0898 281.088 64.9814 281.416 64.8584ZM288.535 70.1758C287.873 70.1758 287.272 70.0645 286.733 69.8418C286.2 69.6133 285.74 69.2939 285.354 68.8838C284.973 68.4736 284.68 67.9873 284.475 67.4248C284.27 66.8623 284.167 66.2471 284.167 65.5791V65.21C284.167 64.4365 284.281 63.748 284.51 63.1445C284.738 62.5352 285.049 62.0195 285.441 61.5977C285.834 61.1758 286.279 60.8564 286.777 60.6396C287.275 60.4229 287.791 60.3145 288.324 60.3145C289.004 60.3145 289.59 60.4316 290.082 60.666C290.58 60.9004 290.987 61.2285 291.304 61.6504C291.62 62.0664 291.854 62.5586 292.007 63.127C292.159 63.6895 292.235 64.3047 292.235 64.9727V65.7021H285.134V64.375H290.609V64.252C290.586 63.8301 290.498 63.4199 290.346 63.0215C290.199 62.623 289.965 62.2949 289.643 62.0371C289.32 61.7793 288.881 61.6504 288.324 61.6504C287.955 61.6504 287.615 61.7295 287.305 61.8877C286.994 62.04 286.728 62.2686 286.505 62.5732C286.282 62.8779 286.109 63.25 285.986 63.6895C285.863 64.1289 285.802 64.6357 285.802 65.21V65.5791C285.802 66.0303 285.863 66.4551 285.986 66.8535C286.115 67.2461 286.3 67.5918 286.54 67.8906C286.786 68.1895 287.082 68.4238 287.428 68.5938C287.779 68.7637 288.178 68.8486 288.623 68.8486C289.197 68.8486 289.684 68.7314 290.082 68.4971C290.48 68.2627 290.829 67.9492 291.128 67.5566L292.112 68.3389C291.907 68.6494 291.646 68.9453 291.33 69.2266C291.014 69.5078 290.624 69.7363 290.161 69.9121C289.704 70.0879 289.162 70.1758 288.535 70.1758ZM297.904 60.4902V70H296.27V60.4902H297.904ZM301.095 60.4902V61.8086H293.141V60.4902H301.095ZM305.797 68.8398C306.184 68.8398 306.541 68.7607 306.869 68.6025C307.197 68.4443 307.467 68.2275 307.678 67.9521C307.889 67.6709 308.009 67.3516 308.038 66.9941H309.585C309.556 67.5566 309.365 68.0811 309.014 68.5674C308.668 69.0479 308.214 69.4375 307.651 69.7363C307.089 70.0293 306.471 70.1758 305.797 70.1758C305.082 70.1758 304.458 70.0498 303.925 69.7979C303.397 69.5459 302.958 69.2002 302.606 68.7607C302.261 68.3213 302 67.8174 301.824 67.249C301.654 66.6748 301.569 66.0684 301.569 65.4297V65.0605C301.569 64.4219 301.654 63.8184 301.824 63.25C302 62.6758 302.261 62.1689 302.606 61.7295C302.958 61.29 303.397 60.9443 303.925 60.6924C304.458 60.4404 305.082 60.3145 305.797 60.3145C306.541 60.3145 307.191 60.4668 307.748 60.7715C308.305 61.0703 308.741 61.4805 309.058 62.002C309.38 62.5176 309.556 63.1035 309.585 63.7598H308.038C308.009 63.3672 307.897 63.0127 307.704 62.6963C307.517 62.3799 307.259 62.1279 306.931 61.9404C306.608 61.7471 306.23 61.6504 305.797 61.6504C305.299 61.6504 304.88 61.75 304.54 61.9492C304.206 62.1426 303.939 62.4062 303.74 62.7402C303.547 63.0684 303.406 63.4346 303.318 63.8389C303.236 64.2373 303.195 64.6445 303.195 65.0605V65.4297C303.195 65.8457 303.236 66.2559 303.318 66.6602C303.4 67.0645 303.538 67.4307 303.731 67.7588C303.931 68.0869 304.197 68.3506 304.531 68.5498C304.871 68.7432 305.293 68.8398 305.797 68.8398ZM315.289 60.4902V70H313.654V60.4902H315.289ZM318.479 60.4902V61.8086H310.525V60.4902H318.479ZM324.544 65.8164H321.424L321.406 64.5156H323.955C324.459 64.5156 324.878 64.4658 325.212 64.3662C325.552 64.2666 325.807 64.1172 325.977 63.918C326.146 63.7188 326.231 63.4727 326.231 63.1797C326.231 62.9512 326.182 62.752 326.082 62.582C325.988 62.4062 325.845 62.2627 325.651 62.1514C325.458 62.0342 325.218 61.9492 324.931 61.8965C324.649 61.8379 324.318 61.8086 323.938 61.8086H321.854V70H320.229V60.4902H323.938C324.541 60.4902 325.083 60.543 325.563 60.6484C326.05 60.7539 326.463 60.915 326.803 61.1318C327.148 61.3428 327.412 61.6123 327.594 61.9404C327.775 62.2686 327.866 62.6553 327.866 63.1006C327.866 63.3877 327.808 63.6602 327.69 63.918C327.573 64.1758 327.4 64.4043 327.172 64.6035C326.943 64.8027 326.662 64.9668 326.328 65.0957C325.994 65.2188 325.61 65.2979 325.177 65.333L324.544 65.8164ZM324.544 70H320.835L321.644 68.6816H324.544C324.995 68.6816 325.37 68.626 325.669 68.5146C325.968 68.3975 326.19 68.2334 326.337 68.0225C326.489 67.8057 326.565 67.5479 326.565 67.249C326.565 66.9502 326.489 66.6953 326.337 66.4844C326.19 66.2676 325.968 66.1035 325.669 65.9922C325.37 65.875 324.995 65.8164 324.544 65.8164H322.074L322.092 64.5156H325.177L325.766 65.0078C326.287 65.0488 326.729 65.1777 327.093 65.3945C327.456 65.6113 327.731 65.8867 327.919 66.2207C328.106 66.5488 328.2 66.9062 328.2 67.293C328.2 67.7383 328.115 68.1309 327.945 68.4707C327.781 68.8105 327.541 69.0947 327.225 69.3232C326.908 69.5459 326.524 69.7158 326.073 69.833C325.622 69.9443 325.112 70 324.544 70ZM329.949 65.3506V65.1484C329.949 64.4629 330.049 63.8271 330.248 63.2412C330.447 62.6494 330.734 62.1367 331.109 61.7031C331.484 61.2637 331.938 60.9238 332.472 60.6836C333.005 60.4375 333.603 60.3145 334.265 60.3145C334.933 60.3145 335.533 60.4375 336.066 60.6836C336.605 60.9238 337.062 61.2637 337.438 61.7031C337.818 62.1367 338.108 62.6494 338.308 63.2412C338.507 63.8271 338.606 64.4629 338.606 65.1484V65.3506C338.606 66.0361 338.507 66.6719 338.308 67.2578C338.108 67.8438 337.818 68.3564 337.438 68.7959C337.062 69.2295 336.608 69.5693 336.075 69.8154C335.548 70.0557 334.95 70.1758 334.282 70.1758C333.614 70.1758 333.014 70.0557 332.48 69.8154C331.947 69.5693 331.49 69.2295 331.109 68.7959C330.734 68.3564 330.447 67.8438 330.248 67.2578C330.049 66.6719 329.949 66.0361 329.949 65.3506ZM331.575 65.1484V65.3506C331.575 65.8252 331.631 66.2734 331.742 66.6953C331.854 67.1113 332.021 67.4805 332.243 67.8027C332.472 68.125 332.756 68.3799 333.096 68.5674C333.436 68.749 333.831 68.8398 334.282 68.8398C334.728 68.8398 335.117 68.749 335.451 68.5674C335.791 68.3799 336.072 68.125 336.295 67.8027C336.518 67.4805 336.685 67.1113 336.796 66.6953C336.913 66.2734 336.972 65.8252 336.972 65.3506V65.1484C336.972 64.6797 336.913 64.2373 336.796 63.8213C336.685 63.3994 336.515 63.0273 336.286 62.7051C336.063 62.377 335.782 62.1191 335.442 61.9316C335.108 61.7441 334.716 61.6504 334.265 61.6504C333.819 61.6504 333.427 61.7441 333.087 61.9316C332.753 62.1191 332.472 62.377 332.243 62.7051C332.021 63.0273 331.854 63.3994 331.742 63.8213C331.631 64.2373 331.575 64.6797 331.575 65.1484Z" fill="black"/>
<rect x="252.5" y="81" width="95" height="25" rx="12" fill="white"/>
<path d="M358.797 64.0146H355.554L355.536 62.6523H358.48C358.967 62.6523 359.392 62.5703 359.755 62.4062C360.118 62.2422 360.399 62.0078 360.599 61.7031C360.804 61.3926 360.906 61.0234 360.906 60.5957C360.906 60.127 360.815 59.7461 360.634 59.4531C360.458 59.1543 360.186 58.9375 359.816 58.8027C359.453 58.6621 358.99 58.5918 358.428 58.5918H355.932V70H354.235V57.2031H358.428C359.084 57.2031 359.67 57.2705 360.186 57.4053C360.701 57.5342 361.138 57.7393 361.495 58.0205C361.858 58.2959 362.134 58.6475 362.321 59.0752C362.509 59.5029 362.603 60.0156 362.603 60.6133C362.603 61.1406 362.468 61.6182 362.198 62.0459C361.929 62.4678 361.554 62.8135 361.073 63.083C360.599 63.3525 360.042 63.5254 359.403 63.6016L358.797 64.0146ZM358.718 70H354.886L355.844 68.6201H358.718C359.257 68.6201 359.714 68.5264 360.089 68.3389C360.47 68.1514 360.76 67.8877 360.959 67.5479C361.158 67.2021 361.258 66.7949 361.258 66.3262C361.258 65.8516 361.173 65.4414 361.003 65.0957C360.833 64.75 360.566 64.4834 360.203 64.2959C359.84 64.1084 359.371 64.0146 358.797 64.0146H356.38L356.397 62.6523H359.702L360.062 63.1445C360.678 63.1973 361.199 63.373 361.627 63.6719C362.055 63.9648 362.38 64.3398 362.603 64.7969C362.831 65.2539 362.945 65.7578 362.945 66.3086C362.945 67.1055 362.77 67.7793 362.418 68.3301C362.072 68.875 361.583 69.291 360.95 69.5781C360.317 69.8594 359.573 70 358.718 70ZM364.773 65.3506V65.1484C364.773 64.4629 364.873 63.8271 365.072 63.2412C365.271 62.6494 365.559 62.1367 365.934 61.7031C366.309 61.2637 366.763 60.9238 367.296 60.6836C367.829 60.4375 368.427 60.3145 369.089 60.3145C369.757 60.3145 370.357 60.4375 370.891 60.6836C371.43 60.9238 371.887 61.2637 372.262 61.7031C372.643 62.1367 372.933 62.6494 373.132 63.2412C373.331 63.8271 373.431 64.4629 373.431 65.1484V65.3506C373.431 66.0361 373.331 66.6719 373.132 67.2578C372.933 67.8438 372.643 68.3564 372.262 68.7959C371.887 69.2295 371.433 69.5693 370.899 69.8154C370.372 70.0557 369.774 70.1758 369.106 70.1758C368.438 70.1758 367.838 70.0557 367.305 69.8154C366.771 69.5693 366.314 69.2295 365.934 68.7959C365.559 68.3564 365.271 67.8438 365.072 67.2578C364.873 66.6719 364.773 66.0361 364.773 65.3506ZM366.399 65.1484V65.3506C366.399 65.8252 366.455 66.2734 366.566 66.6953C366.678 67.1113 366.845 67.4805 367.067 67.8027C367.296 68.125 367.58 68.3799 367.92 68.5674C368.26 68.749 368.655 68.8398 369.106 68.8398C369.552 68.8398 369.941 68.749 370.275 68.5674C370.615 68.3799 370.896 68.125 371.119 67.8027C371.342 67.4805 371.509 67.1113 371.62 66.6953C371.737 66.2734 371.796 65.8252 371.796 65.3506V65.1484C371.796 64.6797 371.737 64.2373 371.62 63.8213C371.509 63.3994 371.339 63.0273 371.11 62.7051C370.888 62.377 370.606 62.1191 370.267 61.9316C369.933 61.7441 369.54 61.6504 369.089 61.6504C368.644 61.6504 368.251 61.7441 367.911 61.9316C367.577 62.1191 367.296 62.377 367.067 62.7051C366.845 63.0273 366.678 63.3994 366.566 63.8213C366.455 64.2373 366.399 64.6797 366.399 65.1484ZM379.021 65.4561H377.271V64.4541H378.889C379.34 64.4541 379.697 64.3984 379.961 64.2871C380.225 64.1699 380.412 64.0088 380.523 63.8037C380.635 63.5986 380.69 63.3584 380.69 63.083C380.69 62.8369 380.626 62.6055 380.497 62.3887C380.374 62.166 380.175 61.9873 379.899 61.8525C379.624 61.7119 379.255 61.6416 378.792 61.6416C378.417 61.6416 378.077 61.709 377.772 61.8438C377.468 61.9727 377.225 62.1514 377.043 62.3799C376.867 62.6025 376.779 62.8545 376.779 63.1357H375.153C375.153 62.5557 375.317 62.0576 375.646 61.6416C375.979 61.2197 376.422 60.8945 376.973 60.666C377.529 60.4375 378.136 60.3232 378.792 60.3232C379.343 60.3232 379.835 60.3848 380.269 60.5078C380.708 60.625 381.08 60.8008 381.385 61.0352C381.689 61.2637 381.921 61.5508 382.079 61.8965C382.243 62.2363 382.325 62.6318 382.325 63.083C382.325 63.4053 382.249 63.71 382.097 63.9971C381.944 64.2842 381.725 64.5391 381.438 64.7617C381.15 64.9785 380.802 65.1484 380.392 65.2715C379.987 65.3945 379.53 65.4561 379.021 65.4561ZM377.271 64.8408H379.021C379.589 64.8408 380.09 64.8965 380.523 65.0078C380.957 65.1133 381.32 65.2715 381.613 65.4824C381.906 65.6934 382.126 65.9541 382.272 66.2646C382.425 66.5693 382.501 66.9209 382.501 67.3193C382.501 67.7646 382.41 68.166 382.229 68.5234C382.053 68.875 381.801 69.1738 381.473 69.4199C381.145 69.666 380.752 69.8535 380.295 69.9824C379.844 70.1113 379.343 70.1758 378.792 70.1758C378.177 70.1758 377.579 70.0703 376.999 69.8594C376.419 69.6484 375.941 69.3232 375.566 68.8838C375.191 68.4385 375.004 67.873 375.004 67.1875H376.63C376.63 67.4746 376.721 67.7471 376.902 68.0049C377.084 68.2627 377.336 68.4707 377.658 68.6289C377.986 68.7871 378.364 68.8662 378.792 68.8662C379.249 68.8662 379.63 68.7959 379.935 68.6553C380.239 68.5146 380.468 68.3271 380.62 68.0928C380.778 67.8584 380.857 67.6035 380.857 67.3281C380.857 66.9707 380.787 66.6836 380.646 66.4668C380.506 66.25 380.289 66.0918 379.996 65.9922C379.709 65.8867 379.34 65.834 378.889 65.834H377.271V64.8408ZM386.236 62.3184V73.6562H384.602V60.4902H386.096L386.236 62.3184ZM392.644 65.166V65.3506C392.644 66.042 392.562 66.6836 392.397 67.2754C392.233 67.8613 391.993 68.3711 391.677 68.8047C391.366 69.2383 390.982 69.5752 390.525 69.8154C390.068 70.0557 389.544 70.1758 388.952 70.1758C388.349 70.1758 387.815 70.0762 387.353 69.877C386.89 69.6777 386.497 69.3877 386.175 69.0068C385.853 68.626 385.595 68.1689 385.401 67.6357C385.214 67.1025 385.085 66.502 385.015 65.834V64.8496C385.085 64.1465 385.217 63.5166 385.41 62.96C385.604 62.4033 385.858 61.9287 386.175 61.5361C386.497 61.1377 386.887 60.8359 387.344 60.6309C387.801 60.4199 388.328 60.3145 388.926 60.3145C389.523 60.3145 390.054 60.4316 390.517 60.666C390.979 60.8945 391.369 61.2227 391.686 61.6504C392.002 62.0781 392.239 62.5908 392.397 63.1885C392.562 63.7803 392.644 64.4395 392.644 65.166ZM391.009 65.3506V65.166C391.009 64.6914 390.959 64.2461 390.859 63.8301C390.76 63.4082 390.604 63.0391 390.394 62.7227C390.188 62.4004 389.925 62.1484 389.603 61.9668C389.28 61.7793 388.896 61.6855 388.451 61.6855C388.041 61.6855 387.684 61.7559 387.379 61.8965C387.08 62.0371 386.825 62.2275 386.614 62.4678C386.403 62.7021 386.23 62.9717 386.096 63.2764C385.967 63.5752 385.87 63.8857 385.806 64.208V66.4844C385.923 66.8945 386.087 67.2812 386.298 67.6445C386.509 68.002 386.79 68.292 387.142 68.5146C387.493 68.7314 387.936 68.8398 388.469 68.8398C388.908 68.8398 389.286 68.749 389.603 68.5674C389.925 68.3799 390.188 68.125 390.394 67.8027C390.604 67.4805 390.76 67.1113 390.859 66.6953C390.959 66.2734 391.009 65.8252 391.009 65.3506ZM400.325 68.374V63.4785C400.325 63.1035 400.249 62.7783 400.097 62.5029C399.95 62.2217 399.728 62.0049 399.429 61.8525C399.13 61.7002 398.761 61.624 398.321 61.624C397.911 61.624 397.551 61.6943 397.24 61.835C396.936 61.9756 396.695 62.1602 396.52 62.3887C396.35 62.6172 396.265 62.8633 396.265 63.127H394.639C394.639 62.7871 394.727 62.4502 394.902 62.1162C395.078 61.7822 395.33 61.4805 395.658 61.2109C395.992 60.9355 396.391 60.7188 396.854 60.5605C397.322 60.3965 397.844 60.3145 398.418 60.3145C399.109 60.3145 399.719 60.4316 400.246 60.666C400.779 60.9004 401.195 61.2549 401.494 61.7295C401.799 62.1982 401.951 62.7871 401.951 63.4961V67.9258C401.951 68.2422 401.978 68.5791 402.03 68.9365C402.089 69.2939 402.174 69.6016 402.285 69.8594V70H400.589C400.507 69.8125 400.442 69.5635 400.396 69.2529C400.349 68.9365 400.325 68.6436 400.325 68.374ZM400.606 64.2344L400.624 65.377H398.98C398.518 65.377 398.104 65.415 397.741 65.4912C397.378 65.5615 397.073 65.6699 396.827 65.8164C396.581 65.9629 396.394 66.1475 396.265 66.3701C396.136 66.5869 396.071 66.8418 396.071 67.1348C396.071 67.4336 396.139 67.7061 396.273 67.9521C396.408 68.1982 396.61 68.3945 396.88 68.541C397.155 68.6816 397.492 68.752 397.891 68.752C398.389 68.752 398.828 68.6465 399.209 68.4355C399.59 68.2246 399.892 67.9668 400.114 67.6621C400.343 67.3574 400.466 67.0615 400.483 66.7744L401.178 67.5566C401.137 67.8027 401.025 68.0752 400.844 68.374C400.662 68.6729 400.419 68.96 400.114 69.2354C399.815 69.5049 399.458 69.7305 399.042 69.9121C398.632 70.0879 398.169 70.1758 397.653 70.1758C397.009 70.1758 396.443 70.0498 395.957 69.7979C395.477 69.5459 395.102 69.209 394.832 68.7871C394.568 68.3594 394.437 67.8818 394.437 67.3545C394.437 66.8447 394.536 66.3965 394.735 66.0098C394.935 65.6172 395.222 65.292 395.597 65.0342C395.972 64.7705 396.423 64.5713 396.95 64.4365C397.478 64.3018 398.066 64.2344 398.717 64.2344H400.606ZM408.314 68.8398C408.701 68.8398 409.059 68.7607 409.387 68.6025C409.715 68.4443 409.984 68.2275 410.195 67.9521C410.406 67.6709 410.526 67.3516 410.556 66.9941H412.103C412.073 67.5566 411.883 68.0811 411.531 68.5674C411.186 69.0479 410.731 69.4375 410.169 69.7363C409.606 70.0293 408.988 70.1758 408.314 70.1758C407.6 70.1758 406.976 70.0498 406.442 69.7979C405.915 69.5459 405.476 69.2002 405.124 68.7607C404.778 68.3213 404.518 67.8174 404.342 67.249C404.172 66.6748 404.087 66.0684 404.087 65.4297V65.0605C404.087 64.4219 404.172 63.8184 404.342 63.25C404.518 62.6758 404.778 62.1689 405.124 61.7295C405.476 61.29 405.915 60.9443 406.442 60.6924C406.976 60.4404 407.6 60.3145 408.314 60.3145C409.059 60.3145 409.709 60.4668 410.266 60.7715C410.822 61.0703 411.259 61.4805 411.575 62.002C411.897 62.5176 412.073 63.1035 412.103 63.7598H410.556C410.526 63.3672 410.415 63.0127 410.222 62.6963C410.034 62.3799 409.776 62.1279 409.448 61.9404C409.126 61.7471 408.748 61.6504 408.314 61.6504C407.816 61.6504 407.397 61.75 407.058 61.9492C406.724 62.1426 406.457 62.4062 406.258 62.7402C406.064 63.0684 405.924 63.4346 405.836 63.8389C405.754 64.2373 405.713 64.6445 405.713 65.0605V65.4297C405.713 65.8457 405.754 66.2559 405.836 66.6602C405.918 67.0645 406.056 67.4307 406.249 67.7588C406.448 68.0869 406.715 68.3506 407.049 68.5498C407.389 68.7432 407.811 68.8398 408.314 68.8398ZM417.807 60.4902V70H416.172V60.4902H417.807ZM420.997 60.4902V61.8086H413.043V60.4902H420.997Z" fill="black"/>
<rect x="352.75" y="81" width="77" height="25" rx="12" fill="white"/>
<path d="M446.259 57.2031V70H444.571V58.5918H438.261V70H436.564V57.2031H446.259ZM448.658 65.3506V65.1484C448.658 64.4629 448.758 63.8271 448.957 63.2412C449.156 62.6494 449.443 62.1367 449.818 61.7031C450.193 61.2637 450.647 60.9238 451.181 60.6836C451.714 60.4375 452.312 60.3145 452.974 60.3145C453.642 60.3145 454.242 60.4375 454.775 60.6836C455.314 60.9238 455.771 61.2637 456.146 61.7031C456.527 62.1367 456.817 62.6494 457.017 63.2412C457.216 63.8271 457.315 64.4629 457.315 65.1484V65.3506C457.315 66.0361 457.216 66.6719 457.017 67.2578C456.817 67.8438 456.527 68.3564 456.146 68.7959C455.771 69.2295 455.317 69.5693 454.784 69.8154C454.257 70.0557 453.659 70.1758 452.991 70.1758C452.323 70.1758 451.723 70.0557 451.189 69.8154C450.656 69.5693 450.199 69.2295 449.818 68.7959C449.443 68.3564 449.156 67.8438 448.957 67.2578C448.758 66.6719 448.658 66.0361 448.658 65.3506ZM450.284 65.1484V65.3506C450.284 65.8252 450.34 66.2734 450.451 66.6953C450.562 67.1113 450.729 67.4805 450.952 67.8027C451.181 68.125 451.465 68.3799 451.805 68.5674C452.145 68.749 452.54 68.8398 452.991 68.8398C453.437 68.8398 453.826 68.749 454.16 68.5674C454.5 68.3799 454.781 68.125 455.004 67.8027C455.227 67.4805 455.394 67.1113 455.505 66.6953C455.622 66.2734 455.681 65.8252 455.681 65.3506V65.1484C455.681 64.6797 455.622 64.2373 455.505 63.8213C455.394 63.3994 455.224 63.0273 454.995 62.7051C454.772 62.377 454.491 62.1191 454.151 61.9316C453.817 61.7441 453.425 61.6504 452.974 61.6504C452.528 61.6504 452.136 61.7441 451.796 61.9316C451.462 62.1191 451.181 62.377 450.952 62.7051C450.729 63.0273 450.562 63.3994 450.451 63.8213C450.34 64.2373 450.284 64.6797 450.284 65.1484ZM465.568 60.4902V61.835H460.972V60.4902H465.568ZM467.001 60.4902V70H465.375V60.4902H467.001ZM460.576 60.4902H462.211L461.965 65.0781C461.924 65.7871 461.856 66.4141 461.763 66.959C461.675 67.498 461.552 67.9609 461.394 68.3477C461.241 68.7344 461.048 69.0508 460.813 69.2969C460.585 69.5371 460.31 69.7158 459.987 69.833C459.665 69.9443 459.293 70 458.871 70H458.361V68.5674L458.713 68.541C458.965 68.5234 459.179 68.4648 459.354 68.3652C459.536 68.2656 459.688 68.1191 459.812 67.9258C459.935 67.7266 460.034 67.4717 460.11 67.1611C460.192 66.8506 460.254 66.4814 460.295 66.0537C460.342 65.626 460.377 65.1279 460.4 64.5596L460.576 60.4902Z" fill="black"/>
<rect x="435" y="81" width="77" height="25" rx="12" fill="white"/>
<path d="M63.3379 156.197V157.006C63.3379 157.967 63.2178 158.828 62.9775 159.59C62.7373 160.352 62.3916 160.999 61.9404 161.532C61.4893 162.065 60.9473 162.473 60.3145 162.754C59.6875 163.035 58.9844 163.176 58.2051 163.176C57.4492 163.176 56.7549 163.035 56.1221 162.754C55.4951 162.473 54.9502 162.065 54.4873 161.532C54.0303 160.999 53.6758 160.352 53.4238 159.59C53.1719 158.828 53.0459 157.967 53.0459 157.006V156.197C53.0459 155.236 53.1689 154.378 53.415 153.622C53.667 152.86 54.0215 152.213 54.4785 151.68C54.9355 151.141 55.4775 150.73 56.1045 150.449C56.7373 150.168 57.4316 150.027 58.1875 150.027C58.9668 150.027 59.6699 150.168 60.2969 150.449C60.9297 150.73 61.4717 151.141 61.9229 151.68C62.3799 152.213 62.7285 152.86 62.9688 153.622C63.2148 154.378 63.3379 155.236 63.3379 156.197ZM61.6592 157.006V156.18C61.6592 155.418 61.5801 154.744 61.4219 154.158C61.2695 153.572 61.0439 153.08 60.7451 152.682C60.4463 152.283 60.0801 151.981 59.6465 151.776C59.2188 151.571 58.7324 151.469 58.1875 151.469C57.6602 151.469 57.1826 151.571 56.7549 151.776C56.333 151.981 55.9697 152.283 55.665 152.682C55.3662 153.08 55.1348 153.572 54.9707 154.158C54.8066 154.744 54.7246 155.418 54.7246 156.18V157.006C54.7246 157.773 54.8066 158.453 54.9707 159.045C55.1348 159.631 55.3691 160.126 55.6738 160.53C55.9844 160.929 56.3506 161.23 56.7725 161.436C57.2002 161.641 57.6777 161.743 58.2051 161.743C58.7559 161.743 59.2451 161.641 59.6729 161.436C60.1006 161.23 60.4609 160.929 60.7539 160.53C61.0527 160.126 61.2783 159.631 61.4307 159.045C61.583 158.453 61.6592 157.773 61.6592 157.006ZM71.7314 149.351H73.0674C73.0674 149.925 72.9795 150.382 72.8037 150.722C72.6279 151.056 72.3877 151.313 72.083 151.495C71.7842 151.677 71.4443 151.814 71.0635 151.908C70.6885 152.002 70.2988 152.093 69.8945 152.181C69.3906 152.286 68.9219 152.453 68.4883 152.682C68.0605 152.904 67.6914 153.221 67.3809 153.631C67.0762 154.041 66.8506 154.574 66.7041 155.23C66.5635 155.887 66.5254 156.698 66.5898 157.665V158.474H65.2539V157.665C65.2539 156.581 65.3564 155.635 65.5615 154.826C65.7725 154.018 66.0684 153.335 66.4492 152.778C66.8301 152.222 67.2812 151.779 67.8027 151.451C68.3301 151.123 68.9102 150.897 69.543 150.774C70 150.687 70.3926 150.593 70.7207 150.493C71.0488 150.388 71.2979 150.247 71.4678 150.071C71.6436 149.896 71.7314 149.655 71.7314 149.351ZM69.8066 154.035C70.4277 154.035 70.9814 154.144 71.4678 154.36C71.9541 154.577 72.3672 154.879 72.707 155.266C73.0469 155.652 73.3047 156.109 73.4805 156.637C73.6621 157.158 73.7529 157.727 73.7529 158.342V158.535C73.7529 159.197 73.6562 159.812 73.4629 160.381C73.2754 160.943 72.9971 161.436 72.6279 161.857C72.2646 162.273 71.8193 162.599 71.292 162.833C70.7705 163.067 70.1758 163.185 69.5078 163.185C68.8398 163.185 68.2422 163.067 67.7148 162.833C67.1934 162.599 66.748 162.273 66.3789 161.857C66.0098 161.436 65.7285 160.943 65.5352 160.381C65.3477 159.812 65.2539 159.197 65.2539 158.535V158.342C65.2539 158.195 65.2803 158.052 65.333 157.911C65.3857 157.771 65.4502 157.627 65.5264 157.48C65.6084 157.334 65.6816 157.179 65.7461 157.015C65.9629 156.487 66.2588 155.998 66.6338 155.547C67.0146 155.096 67.4688 154.732 67.9961 154.457C68.5293 154.176 69.1328 154.035 69.8066 154.035ZM69.4902 155.362C68.8926 155.362 68.4004 155.5 68.0137 155.775C67.6328 156.051 67.3486 156.417 67.1611 156.874C66.9736 157.325 66.8799 157.814 66.8799 158.342V158.535C66.8799 158.98 66.9326 159.402 67.0381 159.801C67.1436 160.199 67.3018 160.554 67.5127 160.864C67.7295 161.169 68.002 161.409 68.3301 161.585C68.6641 161.761 69.0566 161.849 69.5078 161.849C69.959 161.849 70.3486 161.761 70.6768 161.585C71.0049 161.409 71.2744 161.169 71.4854 160.864C71.6963 160.554 71.8545 160.199 71.96 159.801C72.0654 159.402 72.1182 158.98 72.1182 158.535V158.342C72.1182 157.943 72.0654 157.565 71.96 157.208C71.8545 156.851 71.6934 156.534 71.4766 156.259C71.2656 155.983 70.9932 155.767 70.6592 155.608C70.3311 155.444 69.9414 155.362 69.4902 155.362ZM77.0664 155.318V166.656H75.4316V153.49H76.9258L77.0664 155.318ZM83.4736 158.166V158.351C83.4736 159.042 83.3916 159.684 83.2275 160.275C83.0635 160.861 82.8232 161.371 82.5068 161.805C82.1963 162.238 81.8125 162.575 81.3555 162.815C80.8984 163.056 80.374 163.176 79.7822 163.176C79.1787 163.176 78.6455 163.076 78.1826 162.877C77.7197 162.678 77.3271 162.388 77.0049 162.007C76.6826 161.626 76.4248 161.169 76.2314 160.636C76.0439 160.103 75.915 159.502 75.8447 158.834V157.85C75.915 157.146 76.0469 156.517 76.2402 155.96C76.4336 155.403 76.6885 154.929 77.0049 154.536C77.3271 154.138 77.7168 153.836 78.1738 153.631C78.6309 153.42 79.1582 153.314 79.7559 153.314C80.3535 153.314 80.8838 153.432 81.3467 153.666C81.8096 153.895 82.1992 154.223 82.5156 154.65C82.832 155.078 83.0693 155.591 83.2275 156.188C83.3916 156.78 83.4736 157.439 83.4736 158.166ZM81.8389 158.351V158.166C81.8389 157.691 81.7891 157.246 81.6895 156.83C81.5898 156.408 81.4346 156.039 81.2236 155.723C81.0186 155.4 80.7549 155.148 80.4326 154.967C80.1104 154.779 79.7266 154.686 79.2812 154.686C78.8711 154.686 78.5137 154.756 78.209 154.896C77.9102 155.037 77.6553 155.228 77.4443 155.468C77.2334 155.702 77.0605 155.972 76.9258 156.276C76.7969 156.575 76.7002 156.886 76.6357 157.208V159.484C76.7529 159.895 76.917 160.281 77.1279 160.645C77.3389 161.002 77.6201 161.292 77.9717 161.515C78.3232 161.731 78.7656 161.84 79.2988 161.84C79.7383 161.84 80.1162 161.749 80.4326 161.567C80.7549 161.38 81.0186 161.125 81.2236 160.803C81.4346 160.48 81.5898 160.111 81.6895 159.695C81.7891 159.273 81.8389 158.825 81.8389 158.351ZM91.1553 161.374V156.479C91.1553 156.104 91.0791 155.778 90.9268 155.503C90.7803 155.222 90.5576 155.005 90.2588 154.853C89.96 154.7 89.5908 154.624 89.1514 154.624C88.7412 154.624 88.3809 154.694 88.0703 154.835C87.7656 154.976 87.5254 155.16 87.3496 155.389C87.1797 155.617 87.0947 155.863 87.0947 156.127H85.4688C85.4688 155.787 85.5566 155.45 85.7324 155.116C85.9082 154.782 86.1602 154.48 86.4883 154.211C86.8223 153.936 87.2207 153.719 87.6836 153.561C88.1523 153.396 88.6738 153.314 89.248 153.314C89.9395 153.314 90.5488 153.432 91.0762 153.666C91.6094 153.9 92.0254 154.255 92.3242 154.729C92.6289 155.198 92.7812 155.787 92.7812 156.496V160.926C92.7812 161.242 92.8076 161.579 92.8604 161.937C92.9189 162.294 93.0039 162.602 93.1152 162.859V163H91.4189C91.3369 162.812 91.2725 162.563 91.2256 162.253C91.1787 161.937 91.1553 161.644 91.1553 161.374ZM91.4365 157.234L91.4541 158.377H89.8105C89.3477 158.377 88.9346 158.415 88.5713 158.491C88.208 158.562 87.9033 158.67 87.6572 158.816C87.4111 158.963 87.2236 159.147 87.0947 159.37C86.9658 159.587 86.9014 159.842 86.9014 160.135C86.9014 160.434 86.9688 160.706 87.1035 160.952C87.2383 161.198 87.4404 161.395 87.71 161.541C87.9854 161.682 88.3223 161.752 88.7207 161.752C89.2188 161.752 89.6582 161.646 90.0391 161.436C90.4199 161.225 90.7217 160.967 90.9443 160.662C91.1729 160.357 91.2959 160.062 91.3135 159.774L92.0078 160.557C91.9668 160.803 91.8555 161.075 91.6738 161.374C91.4922 161.673 91.249 161.96 90.9443 162.235C90.6455 162.505 90.2881 162.73 89.8721 162.912C89.4619 163.088 88.999 163.176 88.4834 163.176C87.8389 163.176 87.2734 163.05 86.7871 162.798C86.3066 162.546 85.9316 162.209 85.6621 161.787C85.3984 161.359 85.2666 160.882 85.2666 160.354C85.2666 159.845 85.3662 159.396 85.5654 159.01C85.7646 158.617 86.0518 158.292 86.4268 158.034C86.8018 157.771 87.2529 157.571 87.7803 157.437C88.3076 157.302 88.8965 157.234 89.5469 157.234H91.4365ZM98.8896 158.456H97.1406V157.454H98.7578C99.209 157.454 99.5664 157.398 99.8301 157.287C100.094 157.17 100.281 157.009 100.393 156.804C100.504 156.599 100.56 156.358 100.56 156.083C100.56 155.837 100.495 155.605 100.366 155.389C100.243 155.166 100.044 154.987 99.7686 154.853C99.4932 154.712 99.124 154.642 98.6611 154.642C98.2861 154.642 97.9463 154.709 97.6416 154.844C97.3369 154.973 97.0938 155.151 96.9121 155.38C96.7363 155.603 96.6484 155.854 96.6484 156.136H95.0225C95.0225 155.556 95.1865 155.058 95.5146 154.642C95.8486 154.22 96.291 153.895 96.8418 153.666C97.3984 153.438 98.0049 153.323 98.6611 153.323C99.2119 153.323 99.7041 153.385 100.138 153.508C100.577 153.625 100.949 153.801 101.254 154.035C101.559 154.264 101.79 154.551 101.948 154.896C102.112 155.236 102.194 155.632 102.194 156.083C102.194 156.405 102.118 156.71 101.966 156.997C101.813 157.284 101.594 157.539 101.307 157.762C101.02 157.979 100.671 158.148 100.261 158.271C99.8564 158.395 99.3994 158.456 98.8896 158.456ZM97.1406 157.841H98.8896C99.458 157.841 99.959 157.896 100.393 158.008C100.826 158.113 101.189 158.271 101.482 158.482C101.775 158.693 101.995 158.954 102.142 159.265C102.294 159.569 102.37 159.921 102.37 160.319C102.37 160.765 102.279 161.166 102.098 161.523C101.922 161.875 101.67 162.174 101.342 162.42C101.014 162.666 100.621 162.854 100.164 162.982C99.7129 163.111 99.2119 163.176 98.6611 163.176C98.0459 163.176 97.4482 163.07 96.8682 162.859C96.2881 162.648 95.8105 162.323 95.4355 161.884C95.0605 161.438 94.873 160.873 94.873 160.188H96.499C96.499 160.475 96.5898 160.747 96.7715 161.005C96.9531 161.263 97.2051 161.471 97.5273 161.629C97.8555 161.787 98.2334 161.866 98.6611 161.866C99.1182 161.866 99.499 161.796 99.8037 161.655C100.108 161.515 100.337 161.327 100.489 161.093C100.647 160.858 100.727 160.604 100.727 160.328C100.727 159.971 100.656 159.684 100.516 159.467C100.375 159.25 100.158 159.092 99.8652 158.992C99.5781 158.887 99.209 158.834 98.7578 158.834H97.1406V157.841ZM104.049 158.351V158.148C104.049 157.463 104.148 156.827 104.348 156.241C104.547 155.649 104.834 155.137 105.209 154.703C105.584 154.264 106.038 153.924 106.571 153.684C107.104 153.438 107.702 153.314 108.364 153.314C109.032 153.314 109.633 153.438 110.166 153.684C110.705 153.924 111.162 154.264 111.537 154.703C111.918 155.137 112.208 155.649 112.407 156.241C112.606 156.827 112.706 157.463 112.706 158.148V158.351C112.706 159.036 112.606 159.672 112.407 160.258C112.208 160.844 111.918 161.356 111.537 161.796C111.162 162.229 110.708 162.569 110.175 162.815C109.647 163.056 109.05 163.176 108.382 163.176C107.714 163.176 107.113 163.056 106.58 162.815C106.047 162.569 105.59 162.229 105.209 161.796C104.834 161.356 104.547 160.844 104.348 160.258C104.148 159.672 104.049 159.036 104.049 158.351ZM105.675 158.148V158.351C105.675 158.825 105.73 159.273 105.842 159.695C105.953 160.111 106.12 160.48 106.343 160.803C106.571 161.125 106.855 161.38 107.195 161.567C107.535 161.749 107.931 161.84 108.382 161.84C108.827 161.84 109.217 161.749 109.551 161.567C109.891 161.38 110.172 161.125 110.395 160.803C110.617 160.48 110.784 160.111 110.896 159.695C111.013 159.273 111.071 158.825 111.071 158.351V158.148C111.071 157.68 111.013 157.237 110.896 156.821C110.784 156.399 110.614 156.027 110.386 155.705C110.163 155.377 109.882 155.119 109.542 154.932C109.208 154.744 108.815 154.65 108.364 154.65C107.919 154.65 107.526 154.744 107.187 154.932C106.853 155.119 106.571 155.377 106.343 155.705C106.12 156.027 105.953 156.399 105.842 156.821C105.73 157.237 105.675 157.68 105.675 158.148ZM119.21 158.816H116.09L116.072 157.516H118.621C119.125 157.516 119.544 157.466 119.878 157.366C120.218 157.267 120.473 157.117 120.643 156.918C120.812 156.719 120.897 156.473 120.897 156.18C120.897 155.951 120.848 155.752 120.748 155.582C120.654 155.406 120.511 155.263 120.317 155.151C120.124 155.034 119.884 154.949 119.597 154.896C119.315 154.838 118.984 154.809 118.604 154.809H116.521V163H114.895V153.49H118.604C119.207 153.49 119.749 153.543 120.229 153.648C120.716 153.754 121.129 153.915 121.469 154.132C121.814 154.343 122.078 154.612 122.26 154.94C122.441 155.269 122.532 155.655 122.532 156.101C122.532 156.388 122.474 156.66 122.356 156.918C122.239 157.176 122.066 157.404 121.838 157.604C121.609 157.803 121.328 157.967 120.994 158.096C120.66 158.219 120.276 158.298 119.843 158.333L119.21 158.816ZM119.21 163H115.501L116.31 161.682H119.21C119.661 161.682 120.036 161.626 120.335 161.515C120.634 161.397 120.856 161.233 121.003 161.022C121.155 160.806 121.231 160.548 121.231 160.249C121.231 159.95 121.155 159.695 121.003 159.484C120.856 159.268 120.634 159.104 120.335 158.992C120.036 158.875 119.661 158.816 119.21 158.816H116.74L116.758 157.516H119.843L120.432 158.008C120.953 158.049 121.396 158.178 121.759 158.395C122.122 158.611 122.397 158.887 122.585 159.221C122.772 159.549 122.866 159.906 122.866 160.293C122.866 160.738 122.781 161.131 122.611 161.471C122.447 161.811 122.207 162.095 121.891 162.323C121.574 162.546 121.19 162.716 120.739 162.833C120.288 162.944 119.778 163 119.21 163ZM130.653 161.374V156.479C130.653 156.104 130.577 155.778 130.425 155.503C130.278 155.222 130.056 155.005 129.757 154.853C129.458 154.7 129.089 154.624 128.649 154.624C128.239 154.624 127.879 154.694 127.568 154.835C127.264 154.976 127.023 155.16 126.848 155.389C126.678 155.617 126.593 155.863 126.593 156.127H124.967C124.967 155.787 125.055 155.45 125.23 155.116C125.406 154.782 125.658 154.48 125.986 154.211C126.32 153.936 126.719 153.719 127.182 153.561C127.65 153.396 128.172 153.314 128.746 153.314C129.438 153.314 130.047 153.432 130.574 153.666C131.107 153.9 131.523 154.255 131.822 154.729C132.127 155.198 132.279 155.787 132.279 156.496V160.926C132.279 161.242 132.306 161.579 132.358 161.937C132.417 162.294 132.502 162.602 132.613 162.859V163H130.917C130.835 162.812 130.771 162.563 130.724 162.253C130.677 161.937 130.653 161.644 130.653 161.374ZM130.935 157.234L130.952 158.377H129.309C128.846 158.377 128.433 158.415 128.069 158.491C127.706 158.562 127.401 158.67 127.155 158.816C126.909 158.963 126.722 159.147 126.593 159.37C126.464 159.587 126.399 159.842 126.399 160.135C126.399 160.434 126.467 160.706 126.602 160.952C126.736 161.198 126.938 161.395 127.208 161.541C127.483 161.682 127.82 161.752 128.219 161.752C128.717 161.752 129.156 161.646 129.537 161.436C129.918 161.225 130.22 160.967 130.442 160.662C130.671 160.357 130.794 160.062 130.812 159.774L131.506 160.557C131.465 160.803 131.354 161.075 131.172 161.374C130.99 161.673 130.747 161.96 130.442 162.235C130.144 162.505 129.786 162.73 129.37 162.912C128.96 163.088 128.497 163.176 127.981 163.176C127.337 163.176 126.771 163.05 126.285 162.798C125.805 162.546 125.43 162.209 125.16 161.787C124.896 161.359 124.765 160.882 124.765 160.354C124.765 159.845 124.864 159.396 125.063 159.01C125.263 158.617 125.55 158.292 125.925 158.034C126.3 157.771 126.751 157.571 127.278 157.437C127.806 157.302 128.395 157.234 129.045 157.234H130.935ZM141.288 157.612V158.931H136.261V157.612H141.288ZM136.604 153.49V163H134.978V153.49H136.604ZM142.606 153.49V163H140.972V153.49H142.606ZM146.983 160.425L151.369 153.49H153.004V163H151.369V156.065L146.983 163H145.366V153.49H146.983V160.425ZM159.561 163.176C158.898 163.176 158.298 163.064 157.759 162.842C157.226 162.613 156.766 162.294 156.379 161.884C155.998 161.474 155.705 160.987 155.5 160.425C155.295 159.862 155.192 159.247 155.192 158.579V158.21C155.192 157.437 155.307 156.748 155.535 156.145C155.764 155.535 156.074 155.02 156.467 154.598C156.859 154.176 157.305 153.856 157.803 153.64C158.301 153.423 158.816 153.314 159.35 153.314C160.029 153.314 160.615 153.432 161.107 153.666C161.605 153.9 162.013 154.229 162.329 154.65C162.646 155.066 162.88 155.559 163.032 156.127C163.185 156.689 163.261 157.305 163.261 157.973V158.702H156.159V157.375H161.635V157.252C161.611 156.83 161.523 156.42 161.371 156.021C161.225 155.623 160.99 155.295 160.668 155.037C160.346 154.779 159.906 154.65 159.35 154.65C158.98 154.65 158.641 154.729 158.33 154.888C158.02 155.04 157.753 155.269 157.53 155.573C157.308 155.878 157.135 156.25 157.012 156.689C156.889 157.129 156.827 157.636 156.827 158.21V158.579C156.827 159.03 156.889 159.455 157.012 159.854C157.141 160.246 157.325 160.592 157.565 160.891C157.812 161.189 158.107 161.424 158.453 161.594C158.805 161.764 159.203 161.849 159.648 161.849C160.223 161.849 160.709 161.731 161.107 161.497C161.506 161.263 161.854 160.949 162.153 160.557L163.138 161.339C162.933 161.649 162.672 161.945 162.355 162.227C162.039 162.508 161.649 162.736 161.187 162.912C160.729 163.088 160.188 163.176 159.561 163.176Z" fill="black"/>
<rect x="52" y="173" width="460" height="25" rx="12" fill="white"/>
<rect x="52" y="206" width="460" height="25" rx="12" fill="white"/>
<rect x="52" y="239" width="460" height="25" rx="12" fill="white"/>
<path d="M63.3379 298.197V299.006C63.3379 299.967 63.2178 300.828 62.9775 301.59C62.7373 302.352 62.3916 302.999 61.9404 303.532C61.4893 304.065 60.9473 304.473 60.3145 304.754C59.6875 305.035 58.9844 305.176 58.2051 305.176C57.4492 305.176 56.7549 305.035 56.1221 304.754C55.4951 304.473 54.9502 304.065 54.4873 303.532C54.0303 302.999 53.6758 302.352 53.4238 301.59C53.1719 300.828 53.0459 299.967 53.0459 299.006V298.197C53.0459 297.236 53.1689 296.378 53.415 295.622C53.667 294.86 54.0215 294.213 54.4785 293.68C54.9355 293.141 55.4775 292.73 56.1045 292.449C56.7373 292.168 57.4316 292.027 58.1875 292.027C58.9668 292.027 59.6699 292.168 60.2969 292.449C60.9297 292.73 61.4717 293.141 61.9229 293.68C62.3799 294.213 62.7285 294.86 62.9688 295.622C63.2148 296.378 63.3379 297.236 63.3379 298.197ZM61.6592 299.006V298.18C61.6592 297.418 61.5801 296.744 61.4219 296.158C61.2695 295.572 61.0439 295.08 60.7451 294.682C60.4463 294.283 60.0801 293.981 59.6465 293.776C59.2188 293.571 58.7324 293.469 58.1875 293.469C57.6602 293.469 57.1826 293.571 56.7549 293.776C56.333 293.981 55.9697 294.283 55.665 294.682C55.3662 295.08 55.1348 295.572 54.9707 296.158C54.8066 296.744 54.7246 297.418 54.7246 298.18V299.006C54.7246 299.773 54.8066 300.453 54.9707 301.045C55.1348 301.631 55.3691 302.126 55.6738 302.53C55.9844 302.929 56.3506 303.23 56.7725 303.436C57.2002 303.641 57.6777 303.743 58.2051 303.743C58.7559 303.743 59.2451 303.641 59.6729 303.436C60.1006 303.23 60.4609 302.929 60.7539 302.53C61.0527 302.126 61.2783 301.631 61.4307 301.045C61.583 300.453 61.6592 299.773 61.6592 299.006ZM71.9688 295.49V296.835H67.1611V295.49H71.9688ZM67.3984 295.49V305H65.7725V295.49H67.3984ZM73.4102 295.49V305H71.7754V295.49H73.4102ZM77.3564 298.76H80.2129C80.9805 298.76 81.6279 298.895 82.1553 299.164C82.6826 299.428 83.0811 299.794 83.3506 300.263C83.626 300.726 83.7637 301.253 83.7637 301.845C83.7637 302.284 83.6875 302.697 83.5352 303.084C83.3828 303.465 83.1543 303.799 82.8496 304.086C82.5508 304.373 82.1787 304.599 81.7334 304.763C81.2939 304.921 80.7871 305 80.2129 305H76.1699V295.49H77.7959V303.664H80.2129C80.6816 303.664 81.0566 303.579 81.3379 303.409C81.6191 303.239 81.8213 303.02 81.9443 302.75C82.0674 302.48 82.1289 302.199 82.1289 301.906C82.1289 301.619 82.0674 301.338 81.9443 301.062C81.8213 300.787 81.6191 300.559 81.3379 300.377C81.0566 300.189 80.6816 300.096 80.2129 300.096H77.3564V298.76ZM87.1475 295.49V305H85.5215V295.49H87.1475ZM93.8711 295.49V305H92.2363V295.49H93.8711ZM97.0615 295.49V296.809H89.1074V295.49H97.0615ZM104.752 297.318V308.656H103.117V295.49H104.611L104.752 297.318ZM111.159 300.166V300.351C111.159 301.042 111.077 301.684 110.913 302.275C110.749 302.861 110.509 303.371 110.192 303.805C109.882 304.238 109.498 304.575 109.041 304.815C108.584 305.056 108.06 305.176 107.468 305.176C106.864 305.176 106.331 305.076 105.868 304.877C105.405 304.678 105.013 304.388 104.69 304.007C104.368 303.626 104.11 303.169 103.917 302.636C103.729 302.103 103.601 301.502 103.53 300.834V299.85C103.601 299.146 103.732 298.517 103.926 297.96C104.119 297.403 104.374 296.929 104.69 296.536C105.013 296.138 105.402 295.836 105.859 295.631C106.316 295.42 106.844 295.314 107.441 295.314C108.039 295.314 108.569 295.432 109.032 295.666C109.495 295.895 109.885 296.223 110.201 296.65C110.518 297.078 110.755 297.591 110.913 298.188C111.077 298.78 111.159 299.439 111.159 300.166ZM109.524 300.351V300.166C109.524 299.691 109.475 299.246 109.375 298.83C109.275 298.408 109.12 298.039 108.909 297.723C108.704 297.4 108.44 297.148 108.118 296.967C107.796 296.779 107.412 296.686 106.967 296.686C106.557 296.686 106.199 296.756 105.895 296.896C105.596 297.037 105.341 297.228 105.13 297.468C104.919 297.702 104.746 297.972 104.611 298.276C104.482 298.575 104.386 298.886 104.321 299.208V301.484C104.438 301.895 104.603 302.281 104.813 302.645C105.024 303.002 105.306 303.292 105.657 303.515C106.009 303.731 106.451 303.84 106.984 303.84C107.424 303.84 107.802 303.749 108.118 303.567C108.44 303.38 108.704 303.125 108.909 302.803C109.12 302.48 109.275 302.111 109.375 301.695C109.475 301.273 109.524 300.825 109.524 300.351ZM118.841 303.374V298.479C118.841 298.104 118.765 297.778 118.612 297.503C118.466 297.222 118.243 297.005 117.944 296.853C117.646 296.7 117.276 296.624 116.837 296.624C116.427 296.624 116.066 296.694 115.756 296.835C115.451 296.976 115.211 297.16 115.035 297.389C114.865 297.617 114.78 297.863 114.78 298.127H113.154C113.154 297.787 113.242 297.45 113.418 297.116C113.594 296.782 113.846 296.48 114.174 296.211C114.508 295.936 114.906 295.719 115.369 295.561C115.838 295.396 116.359 295.314 116.934 295.314C117.625 295.314 118.234 295.432 118.762 295.666C119.295 295.9 119.711 296.255 120.01 296.729C120.314 297.198 120.467 297.787 120.467 298.496V302.926C120.467 303.242 120.493 303.579 120.546 303.937C120.604 304.294 120.689 304.602 120.801 304.859V305H119.104C119.022 304.812 118.958 304.563 118.911 304.253C118.864 303.937 118.841 303.644 118.841 303.374ZM119.122 299.234L119.14 300.377H117.496C117.033 300.377 116.62 300.415 116.257 300.491C115.894 300.562 115.589 300.67 115.343 300.816C115.097 300.963 114.909 301.147 114.78 301.37C114.651 301.587 114.587 301.842 114.587 302.135C114.587 302.434 114.654 302.706 114.789 302.952C114.924 303.198 115.126 303.395 115.396 303.541C115.671 303.682 116.008 303.752 116.406 303.752C116.904 303.752 117.344 303.646 117.725 303.436C118.105 303.225 118.407 302.967 118.63 302.662C118.858 302.357 118.981 302.062 118.999 301.774L119.693 302.557C119.652 302.803 119.541 303.075 119.359 303.374C119.178 303.673 118.935 303.96 118.63 304.235C118.331 304.505 117.974 304.73 117.558 304.912C117.147 305.088 116.685 305.176 116.169 305.176C115.524 305.176 114.959 305.05 114.473 304.798C113.992 304.546 113.617 304.209 113.348 303.787C113.084 303.359 112.952 302.882 112.952 302.354C112.952 301.845 113.052 301.396 113.251 301.01C113.45 300.617 113.737 300.292 114.112 300.034C114.487 299.771 114.938 299.571 115.466 299.437C115.993 299.302 116.582 299.234 117.232 299.234H119.122ZM129.124 291.351H130.46C130.46 291.925 130.372 292.382 130.196 292.722C130.021 293.056 129.78 293.313 129.476 293.495C129.177 293.677 128.837 293.814 128.456 293.908C128.081 294.002 127.691 294.093 127.287 294.181C126.783 294.286 126.314 294.453 125.881 294.682C125.453 294.904 125.084 295.221 124.773 295.631C124.469 296.041 124.243 296.574 124.097 297.23C123.956 297.887 123.918 298.698 123.982 299.665V300.474H122.646V299.665C122.646 298.581 122.749 297.635 122.954 296.826C123.165 296.018 123.461 295.335 123.842 294.778C124.223 294.222 124.674 293.779 125.195 293.451C125.723 293.123 126.303 292.897 126.936 292.774C127.393 292.687 127.785 292.593 128.113 292.493C128.441 292.388 128.69 292.247 128.86 292.071C129.036 291.896 129.124 291.655 129.124 291.351ZM127.199 296.035C127.82 296.035 128.374 296.144 128.86 296.36C129.347 296.577 129.76 296.879 130.1 297.266C130.439 297.652 130.697 298.109 130.873 298.637C131.055 299.158 131.146 299.727 131.146 300.342V300.535C131.146 301.197 131.049 301.812 130.855 302.381C130.668 302.943 130.39 303.436 130.021 303.857C129.657 304.273 129.212 304.599 128.685 304.833C128.163 305.067 127.568 305.185 126.9 305.185C126.232 305.185 125.635 305.067 125.107 304.833C124.586 304.599 124.141 304.273 123.771 303.857C123.402 303.436 123.121 302.943 122.928 302.381C122.74 301.812 122.646 301.197 122.646 300.535V300.342C122.646 300.195 122.673 300.052 122.726 299.911C122.778 299.771 122.843 299.627 122.919 299.48C123.001 299.334 123.074 299.179 123.139 299.015C123.355 298.487 123.651 297.998 124.026 297.547C124.407 297.096 124.861 296.732 125.389 296.457C125.922 296.176 126.525 296.035 127.199 296.035ZM126.883 297.362C126.285 297.362 125.793 297.5 125.406 297.775C125.025 298.051 124.741 298.417 124.554 298.874C124.366 299.325 124.272 299.814 124.272 300.342V300.535C124.272 300.98 124.325 301.402 124.431 301.801C124.536 302.199 124.694 302.554 124.905 302.864C125.122 303.169 125.395 303.409 125.723 303.585C126.057 303.761 126.449 303.849 126.9 303.849C127.352 303.849 127.741 303.761 128.069 303.585C128.397 303.409 128.667 303.169 128.878 302.864C129.089 302.554 129.247 302.199 129.353 301.801C129.458 301.402 129.511 300.98 129.511 300.535V300.342C129.511 299.943 129.458 299.565 129.353 299.208C129.247 298.851 129.086 298.534 128.869 298.259C128.658 297.983 128.386 297.767 128.052 297.608C127.724 297.444 127.334 297.362 126.883 297.362ZM132.561 300.351V300.148C132.561 299.463 132.66 298.827 132.859 298.241C133.059 297.649 133.346 297.137 133.721 296.703C134.096 296.264 134.55 295.924 135.083 295.684C135.616 295.438 136.214 295.314 136.876 295.314C137.544 295.314 138.145 295.438 138.678 295.684C139.217 295.924 139.674 296.264 140.049 296.703C140.43 297.137 140.72 297.649 140.919 298.241C141.118 298.827 141.218 299.463 141.218 300.148V300.351C141.218 301.036 141.118 301.672 140.919 302.258C140.72 302.844 140.43 303.356 140.049 303.796C139.674 304.229 139.22 304.569 138.687 304.815C138.159 305.056 137.562 305.176 136.894 305.176C136.226 305.176 135.625 305.056 135.092 304.815C134.559 304.569 134.102 304.229 133.721 303.796C133.346 303.356 133.059 302.844 132.859 302.258C132.66 301.672 132.561 301.036 132.561 300.351ZM134.187 300.148V300.351C134.187 300.825 134.242 301.273 134.354 301.695C134.465 302.111 134.632 302.48 134.854 302.803C135.083 303.125 135.367 303.38 135.707 303.567C136.047 303.749 136.442 303.84 136.894 303.84C137.339 303.84 137.729 303.749 138.062 303.567C138.402 303.38 138.684 303.125 138.906 302.803C139.129 302.48 139.296 302.111 139.407 301.695C139.524 301.273 139.583 300.825 139.583 300.351V300.148C139.583 299.68 139.524 299.237 139.407 298.821C139.296 298.399 139.126 298.027 138.897 297.705C138.675 297.377 138.394 297.119 138.054 296.932C137.72 296.744 137.327 296.65 136.876 296.65C136.431 296.65 136.038 296.744 135.698 296.932C135.364 297.119 135.083 297.377 134.854 297.705C134.632 298.027 134.465 298.399 134.354 298.821C134.242 299.237 134.187 299.68 134.187 300.148ZM146.939 295.49V305H145.305V295.49H146.939ZM150.13 295.49V296.809H142.176V295.49H150.13ZM153.065 298.76H155.922C156.689 298.76 157.337 298.895 157.864 299.164C158.392 299.428 158.79 299.794 159.06 300.263C159.335 300.726 159.473 301.253 159.473 301.845C159.473 302.284 159.396 302.697 159.244 303.084C159.092 303.465 158.863 303.799 158.559 304.086C158.26 304.373 157.888 304.599 157.442 304.763C157.003 304.921 156.496 305 155.922 305H151.879V295.49H153.505V303.664H155.922C156.391 303.664 156.766 303.579 157.047 303.409C157.328 303.239 157.53 303.02 157.653 302.75C157.776 302.48 157.838 302.199 157.838 301.906C157.838 301.619 157.776 301.338 157.653 301.062C157.53 300.787 157.328 300.559 157.047 300.377C156.766 300.189 156.391 300.096 155.922 300.096H153.065V298.76ZM162.856 295.49V305H161.23V295.49H162.856Z" fill="black"/>
<rect x="52" y="315" width="215" height="25" rx="12" fill="white"/>
<rect x="52" y="346" width="215" height="25" rx="12" fill="white"/>
<path d="M62.2109 407.931H63.8984C63.8105 408.739 63.5791 409.463 63.2041 410.102C62.8291 410.74 62.2988 411.247 61.6133 411.622C60.9277 411.991 60.0723 412.176 59.0469 412.176C58.2969 412.176 57.6143 412.035 56.999 411.754C56.3896 411.473 55.8652 411.074 55.4258 410.559C54.9863 410.037 54.6465 409.413 54.4062 408.687C54.1719 407.954 54.0547 407.14 54.0547 406.243V404.969C54.0547 404.072 54.1719 403.261 54.4062 402.534C54.6465 401.802 54.9893 401.175 55.4346 400.653C55.8857 400.132 56.4277 399.73 57.0605 399.449C57.6934 399.168 58.4053 399.027 59.1963 399.027C60.1631 399.027 60.9805 399.209 61.6484 399.572C62.3164 399.936 62.835 400.439 63.2041 401.084C63.5791 401.723 63.8105 402.464 63.8984 403.308H62.2109C62.1289 402.71 61.9766 402.197 61.7539 401.77C61.5312 401.336 61.2148 401.002 60.8047 400.768C60.3945 400.533 59.8584 400.416 59.1963 400.416C58.6279 400.416 58.127 400.524 57.6934 400.741C57.2656 400.958 56.9053 401.266 56.6123 401.664C56.3252 402.062 56.1084 402.54 55.9619 403.097C55.8154 403.653 55.7422 404.271 55.7422 404.951V406.243C55.7422 406.87 55.8066 407.459 55.9355 408.01C56.0703 408.561 56.2725 409.044 56.542 409.46C56.8115 409.876 57.1543 410.204 57.5703 410.444C57.9863 410.679 58.4785 410.796 59.0469 410.796C59.7676 410.796 60.3418 410.682 60.7695 410.453C61.1973 410.225 61.5195 409.896 61.7363 409.469C61.959 409.041 62.1172 408.528 62.2109 407.931ZM68.6357 411.016L71.2812 402.49H73.0215L69.207 413.468C69.1191 413.702 69.002 413.954 68.8555 414.224C68.7148 414.499 68.5332 414.76 68.3105 415.006C68.0879 415.252 67.8184 415.451 67.502 415.604C67.1914 415.762 66.8193 415.841 66.3857 415.841C66.2568 415.841 66.0928 415.823 65.8936 415.788C65.6943 415.753 65.5537 415.724 65.4717 415.7L65.4629 414.382C65.5098 414.388 65.583 414.394 65.6826 414.399C65.7881 414.411 65.8613 414.417 65.9023 414.417C66.2715 414.417 66.585 414.367 66.8428 414.268C67.1006 414.174 67.3174 414.013 67.4932 413.784C67.6748 413.562 67.8301 413.254 67.959 412.861L68.6357 411.016ZM66.6934 402.49L69.1631 409.873L69.585 411.587L68.416 412.185L64.918 402.49H66.6934ZM75.7109 402.49H77.3369L77.1963 406.05C77.1611 406.952 77.0586 407.731 76.8887 408.388C76.7188 409.044 76.502 409.604 76.2383 410.066C75.9746 410.523 75.6787 410.907 75.3506 411.218C75.0283 411.528 74.6943 411.789 74.3486 412H73.54L73.584 410.673L73.918 410.664C74.1113 410.436 74.2988 410.201 74.4805 409.961C74.6621 409.715 74.8291 409.425 74.9814 409.091C75.1338 408.751 75.2598 408.338 75.3594 407.852C75.4648 407.359 75.5322 406.759 75.5615 406.05L75.7109 402.49ZM76.1152 402.49H81.8369V412H80.2109V403.993H76.1152V402.49ZM73.1709 410.664H83.0586V414.804H81.4326V412H74.7969V414.804H73.1621L73.1709 410.664ZM86.6182 409.425L91.0039 402.49H92.6387V412H91.0039V405.065L86.6182 412H85.001V402.49H86.6182V409.425ZM100.716 409.838L103.95 402.49H105.515L101.278 412H100.153L95.9346 402.49H97.499L100.716 409.838ZM97.0244 402.49V412H95.3984V402.49H97.0244ZM104.354 412V402.49H105.989V412H104.354ZM108.178 407.351V407.148C108.178 406.463 108.277 405.827 108.477 405.241C108.676 404.649 108.963 404.137 109.338 403.703C109.713 403.264 110.167 402.924 110.7 402.684C111.233 402.438 111.831 402.314 112.493 402.314C113.161 402.314 113.762 402.438 114.295 402.684C114.834 402.924 115.291 403.264 115.666 403.703C116.047 404.137 116.337 404.649 116.536 405.241C116.735 405.827 116.835 406.463 116.835 407.148V407.351C116.835 408.036 116.735 408.672 116.536 409.258C116.337 409.844 116.047 410.356 115.666 410.796C115.291 411.229 114.837 411.569 114.304 411.815C113.776 412.056 113.179 412.176 112.511 412.176C111.843 412.176 111.242 412.056 110.709 411.815C110.176 411.569 109.719 411.229 109.338 410.796C108.963 410.356 108.676 409.844 108.477 409.258C108.277 408.672 108.178 408.036 108.178 407.351ZM109.804 407.148V407.351C109.804 407.825 109.859 408.273 109.971 408.695C110.082 409.111 110.249 409.48 110.472 409.803C110.7 410.125 110.984 410.38 111.324 410.567C111.664 410.749 112.06 410.84 112.511 410.84C112.956 410.84 113.346 410.749 113.68 410.567C114.02 410.38 114.301 410.125 114.523 409.803C114.746 409.48 114.913 409.111 115.024 408.695C115.142 408.273 115.2 407.825 115.2 407.351V407.148C115.2 406.68 115.142 406.237 115.024 405.821C114.913 405.399 114.743 405.027 114.515 404.705C114.292 404.377 114.011 404.119 113.671 403.932C113.337 403.744 112.944 403.65 112.493 403.65C112.048 403.65 111.655 403.744 111.315 403.932C110.981 404.119 110.7 404.377 110.472 404.705C110.249 405.027 110.082 405.399 109.971 405.821C109.859 406.237 109.804 406.68 109.804 407.148ZM122.68 410.84C123.066 410.84 123.424 410.761 123.752 410.603C124.08 410.444 124.35 410.228 124.561 409.952C124.771 409.671 124.892 409.352 124.921 408.994H126.468C126.438 409.557 126.248 410.081 125.896 410.567C125.551 411.048 125.097 411.438 124.534 411.736C123.972 412.029 123.354 412.176 122.68 412.176C121.965 412.176 121.341 412.05 120.808 411.798C120.28 411.546 119.841 411.2 119.489 410.761C119.144 410.321 118.883 409.817 118.707 409.249C118.537 408.675 118.452 408.068 118.452 407.43V407.061C118.452 406.422 118.537 405.818 118.707 405.25C118.883 404.676 119.144 404.169 119.489 403.729C119.841 403.29 120.28 402.944 120.808 402.692C121.341 402.44 121.965 402.314 122.68 402.314C123.424 402.314 124.074 402.467 124.631 402.771C125.188 403.07 125.624 403.48 125.94 404.002C126.263 404.518 126.438 405.104 126.468 405.76H124.921C124.892 405.367 124.78 405.013 124.587 404.696C124.399 404.38 124.142 404.128 123.813 403.94C123.491 403.747 123.113 403.65 122.68 403.65C122.182 403.65 121.763 403.75 121.423 403.949C121.089 404.143 120.822 404.406 120.623 404.74C120.43 405.068 120.289 405.435 120.201 405.839C120.119 406.237 120.078 406.645 120.078 407.061V407.43C120.078 407.846 120.119 408.256 120.201 408.66C120.283 409.064 120.421 409.431 120.614 409.759C120.813 410.087 121.08 410.351 121.414 410.55C121.754 410.743 122.176 410.84 122.68 410.84ZM132.172 402.49V412H130.537V402.49H132.172ZM135.362 402.49V403.809H127.408V402.49H135.362ZM138.72 409.425L143.105 402.49H144.74V412H143.105V405.065L138.72 412H137.103V402.49H138.72V409.425Z" fill="black"/>
<rect x="52" y="422" width="95" height="25" rx="12" fill="white"/>
<defs>
<linearGradient id="paint0_linear_203_4403" x1="311" y1="0" x2="311" y2="581.926" gradientUnits="userSpaceOnUse">
<stop stop-color="#E0E0E0"/>
<stop offset="1" stop-color="#E0E0E0" stop-opacity="0"/>
</linearGradient>
</defs>
</svg>
