<svg width="32" height="32" viewBox="0 0 32 32" fill="none" xmlns="http://www.w3.org/2000/svg">
<path d="M16 14.3333C18.3012 14.3333 20.1667 12.4678 20.1667 10.1667C20.1667 7.86548 18.3012 6 16 6C13.6989 6 11.8334 7.86548 11.8334 10.1667C11.8334 12.4678 13.6989 14.3333 16 14.3333Z" fill="#618DFF" stroke="#618DFF" stroke-width="2" stroke-linecap="round" stroke-linejoin="round"/>
<path d="M8.5 25.9979H16H23.5V25.0944C23.4867 23.8241 23.1517 22.5778 22.5262 21.4721C21.9007 20.3663 21.0052 19.4371 19.9232 18.7713C18.8412 18.1054 17.6082 17.7247 16.3392 17.6646C16.2261 17.6593 16.113 17.6565 16 17.6562C15.887 17.6565 15.7739 17.6593 15.6608 17.6646C14.3918 17.7247 13.1588 18.1054 12.0768 18.7713C10.9948 19.4371 10.0993 20.3663 9.47378 21.4721C8.8483 22.5778 8.51327 23.8241 8.5 25.0944V25.9979Z" fill="#618DFF" stroke="#618DFF" stroke-width="2" stroke-linecap="round" stroke-linejoin="round"/>
</svg>
